<svg xmlns="http://www.w3.org/2000/svg" width="121.8" height="113" viewBox="0 0 121.8 113">
  <g id="favicon" transform="translate(-821 -497.2)">
    <path id="Trazado_1" data-name="Trazado 1" d="M528-110.8a73.306,73.306,0,0,1,24.8,4A55.246,55.246,0,0,1,572-95.4a50.979,50.979,0,0,1,12.4,17.8,58.45,58.45,0,0,1,4.4,23,58.982,58.982,0,0,1-4.4,23.2A52,52,0,0,1,572-13.5,55.661,55.661,0,0,1,552.8-1.9,71.684,71.684,0,0,1,528,2.2a72.532,72.532,0,0,1-24.9-4.1,55.491,55.491,0,0,1-19.3-11.6,51.994,51.994,0,0,1-12.4-17.9A58.982,58.982,0,0,1,467-54.6a58.451,58.451,0,0,1,4.4-23,50.978,50.978,0,0,1,12.4-17.8A55.247,55.247,0,0,1,503-106.8,73.939,73.939,0,0,1,528-110.8ZM528-2a21,21,0,0,0,12.3-4,34.066,34.066,0,0,0,9.8-11.1,64.626,64.626,0,0,0,6.5-16.7A85.611,85.611,0,0,0,559-54.6a87.886,87.886,0,0,0-2.3-20.7,58.8,58.8,0,0,0-6.5-16.5,34.271,34.271,0,0,0-9.9-10.9,21.362,21.362,0,0,0-12.3-3.9,21.671,21.671,0,0,0-12.5,3.9,34.272,34.272,0,0,0-9.9,10.9,58.8,58.8,0,0,0-6.5,16.5,87.886,87.886,0,0,0-2.3,20.7,85.609,85.609,0,0,0,2.4,20.8,62.372,62.372,0,0,0,6.6,16.7A35.083,35.083,0,0,0,515.7-6,21,21,0,0,0,528-2Z" transform="translate(354 608)" fill="#93009c"/>
  </g>
</svg>
