<svg xmlns="http://www.w3.org/2000/svg" width="1143.4" height="278.6" viewBox="0 0 1143.4 278.6">
  <g id="logo" transform="translate(-361 -439.4)">
    <path id="Trazado_1" data-name="Trazado 1" d="M44.2-108.2q0,7.4,2.4,10.3A7.887,7.887,0,0,0,53-95a30.367,30.367,0,0,0,10.9-2.5q6.3-2.5,13.5-5.4t15.2-5.4a52.766,52.766,0,0,1,15.8-2.5,24.442,24.442,0,0,1,6.5.8,9.325,9.325,0,0,1,5,3.6,20.394,20.394,0,0,1,3.2,8,70.591,70.591,0,0,1,1.1,14v54.2a89.475,89.475,0,0,0,.9,14.3,39.5,39.5,0,0,0,2.2,8.4,14.39,14.39,0,0,0,2.8,4.6A23.363,23.363,0,0,1,132.6,0H87q1-1.2,2.4-2.7a15.947,15.947,0,0,0,2.7-4.5,37.4,37.4,0,0,0,2.2-8.4A91.453,91.453,0,0,0,95.2-30V-79q0-6.8-.1-11.3a60.555,60.555,0,0,0-.5-7.2,7.981,7.981,0,0,0-1.4-3.9,3.444,3.444,0,0,0-2.8-1.2,22.452,22.452,0,0,0-7.8,1.9q-4.8,1.9-10.4,4.1T61-92.5a31.567,31.567,0,0,1-10,1.9A9.2,9.2,0,0,1,44.2-93v62.8a89.474,89.474,0,0,0,.9,14.3,39.5,39.5,0,0,0,2.2,8.4,14.39,14.39,0,0,0,2.8,4.6A23.363,23.363,0,0,1,52.6,0H7Q8-1.2,9.4-2.7a15.742,15.742,0,0,0,2.7-4.6,39.541,39.541,0,0,0,2.2-8.5,91.453,91.453,0,0,0,.9-14.4v-48a91.453,91.453,0,0,0-.9-14.4,47.628,47.628,0,0,0-2.1-8.6,14.342,14.342,0,0,0-2.6-4.7q-1.4-1.5-2.6-2.7H44.2ZM168.6-46.8a14.229,14.229,0,0,1,5.5-4.5,19.839,19.839,0,0,1,8.7-1.7q10.2,0,16.7-2.9a26.781,26.781,0,0,0,10.2-7.5,25.151,25.151,0,0,0,5-10.4A52.02,52.02,0,0,0,216-85.2q0-10-3.7-15.7t-12.1-5.7a22.652,22.652,0,0,0-12.4,3.7,32.9,32.9,0,0,0-10.1,10.6,59.475,59.475,0,0,0-6.8,16.4,83.758,83.758,0,0,0-2.5,21.3v3.9Q168.4-48.8,168.6-46.8ZM241.8-15A44.64,44.64,0,0,1,224-2.2q-10.8,4.4-26.2,4.4-14.6,0-25.7-4.1a50.717,50.717,0,0,1-18.6-11.6,47.3,47.3,0,0,1-11.2-18,69.09,69.09,0,0,1-3.7-23.1,65.048,65.048,0,0,1,3.9-23,46.845,46.845,0,0,1,11.7-17.8,52.674,52.674,0,0,1,19.4-11.4,82.126,82.126,0,0,1,26.8-4,78.441,78.441,0,0,1,16.9,1.7,39.406,39.406,0,0,1,13.2,5.3,25.564,25.564,0,0,1,8.6,9.3,28.748,28.748,0,0,1,3.1,13.9,28.02,28.02,0,0,1-3.3,13.9,26.233,26.233,0,0,1-10.4,9.9q-7.1,4-18.4,6a159.431,159.431,0,0,1-27.3,2q-7.4,0-10.4,3.5a9.476,9.476,0,0,0-2.6,7.3q3,16.6,12.1,26.3T206-2a41.577,41.577,0,0,0,18.3-4.2A43.354,43.354,0,0,0,239.2-18Zm86.6-54.6q6.4-7.6,8.2-14.4t-.1-11.8a15.02,15.02,0,0,0-7.2-7.9q-5.3-2.9-13.3-2.9a27.7,27.7,0,0,0-14.3,3.7,33.031,33.031,0,0,0-10.8,10.5A52.637,52.637,0,0,0,284-76a88.307,88.307,0,0,0-2.4,21.4A88.635,88.635,0,0,0,284-33.3a55.184,55.184,0,0,0,6.9,16.7A32.365,32.365,0,0,0,302-5.8,29.515,29.515,0,0,0,317-2a42.194,42.194,0,0,0,18-4,41.566,41.566,0,0,0,15-12l2.6,3a45.909,45.909,0,0,1-17,12.8,56.621,56.621,0,0,1-23,4.4,75.691,75.691,0,0,1-25.9-4.1,54.184,54.184,0,0,1-19.1-11.5,47.71,47.71,0,0,1-11.8-17.9,64.984,64.984,0,0,1-4-23.3,63.588,63.588,0,0,1,4-23,47.863,47.863,0,0,1,11.8-17.8,52.786,52.786,0,0,1,19.3-11.4,80.539,80.539,0,0,1,26.5-4,50.272,50.272,0,0,1,18.9,3.2,35.665,35.665,0,0,1,13,8.7,34.151,34.151,0,0,1,7.5,13,53.218,53.218,0,0,1,2.4,16.3Zm76-38.6q0,6.8,1.4,9.4a4.364,4.364,0,0,0,4,2.6,13.3,13.3,0,0,0,6.6-2.3q3.8-2.3,8.3-5a92.76,92.76,0,0,1,9.6-5,24.42,24.42,0,0,1,10.1-2.3q5.8,0,8.9,3a19.031,19.031,0,0,1,4.7,7.7,38.718,38.718,0,0,1,1.9,10.5q.3,5.8.3,11.4h-27a103.805,103.805,0,0,0,6.7-11,49.544,49.544,0,0,0,3.8-9.1,11.975,11.975,0,0,0,.5-6.1,2.792,2.792,0,0,0-3-2.2,15.091,15.091,0,0,0-7.1,2.3q-4.1,2.3-8.6,5t-8.9,5a17.543,17.543,0,0,1-8,2.3,6.147,6.147,0,0,1-4.2-1.4v63.2a89.474,89.474,0,0,0,.9,14.3,39.5,39.5,0,0,0,2.2,8.4,14.39,14.39,0,0,0,2.8,4.6A23.362,23.362,0,0,1,412.8,0H367.2q1-1.2,2.4-2.7a15.743,15.743,0,0,0,2.7-4.6,39.541,39.541,0,0,0,2.2-8.5,91.451,91.451,0,0,0,.9-14.4v-48a91.451,91.451,0,0,0-.9-14.4,47.63,47.63,0,0,0-2.1-8.6,14.343,14.343,0,0,0-2.6-4.7q-1.4-1.5-2.6-2.7h37.2ZM528-110.8a73.306,73.306,0,0,1,24.8,4A55.246,55.246,0,0,1,572-95.4a50.979,50.979,0,0,1,12.4,17.8,58.45,58.45,0,0,1,4.4,23,58.982,58.982,0,0,1-4.4,23.2A52,52,0,0,1,572-13.5,55.661,55.661,0,0,1,552.8-1.9,71.684,71.684,0,0,1,528,2.2a72.532,72.532,0,0,1-24.9-4.1,55.491,55.491,0,0,1-19.3-11.6,51.994,51.994,0,0,1-12.4-17.9A58.982,58.982,0,0,1,467-54.6a58.451,58.451,0,0,1,4.4-23,50.978,50.978,0,0,1,12.4-17.8A55.247,55.247,0,0,1,503-106.8,73.939,73.939,0,0,1,528-110.8ZM528-2a21,21,0,0,0,12.3-4,34.066,34.066,0,0,0,9.8-11.1,64.626,64.626,0,0,0,6.5-16.7A85.611,85.611,0,0,0,559-54.6a87.886,87.886,0,0,0-2.3-20.7,58.8,58.8,0,0,0-6.5-16.5,34.271,34.271,0,0,0-9.9-10.9,21.362,21.362,0,0,0-12.3-3.9,21.671,21.671,0,0,0-12.5,3.9,34.272,34.272,0,0,0-9.9,10.9,58.8,58.8,0,0,0-6.5,16.5,87.886,87.886,0,0,0-2.3,20.7,85.609,85.609,0,0,0,2.4,20.8,62.372,62.372,0,0,0,6.6,16.7A35.083,35.083,0,0,0,515.7-6,21,21,0,0,0,528-2ZM637-104.6V6.4a22.656,22.656,0,0,1,8.3-7.5A26.542,26.542,0,0,1,658.2-4a26.267,26.267,0,0,0,13.9-3.7,29.652,29.652,0,0,0,10.1-10.4,54.462,54.462,0,0,0,6.1-16,93.152,93.152,0,0,0,2.1-20.5A91.8,91.8,0,0,0,688.3-75a53.144,53.144,0,0,0-6.1-15.8A29.03,29.03,0,0,0,672.1-101a26.828,26.828,0,0,0-13.9-3.6Zm21.2-4q15.8,0,27.4,3.9a52.877,52.877,0,0,1,19.3,11,43.522,43.522,0,0,1,11.4,17A62.731,62.731,0,0,1,720-54.6a63.564,63.564,0,0,1-3.7,22.2,44.227,44.227,0,0,1-11.4,17.2A53.2,53.2,0,0,1,685.6-4Q674,0,658.2,0a25.658,25.658,0,0,0-10,1.7,17.968,17.968,0,0,0-6.5,4.5,16.922,16.922,0,0,0-3.6,6.4,24.526,24.526,0,0,0-1.1,7.2c0,6,.3,70.767.9,74.3a39.5,39.5,0,0,0,2.2,8.4,14.39,14.39,0,0,0,2.8,4.6,23.364,23.364,0,0,1,2.5,2.9H600q1-1.2,2.4-2.7a15.945,15.945,0,0,0,2.7-4.5,37.4,37.4,0,0,0,2.2-8.4c.6-3.6.9-68.4.9-74.4V-78.2a91.448,91.448,0,0,0-.9-14.4,47.633,47.633,0,0,0-2.1-8.6,14.341,14.341,0,0,0-2.6-4.7q-1.4-1.5-2.6-2.7ZM768.4-30a89.478,89.478,0,0,0,.9,14.3,37.327,37.327,0,0,0,2.2,8.3,14.541,14.541,0,0,0,2.8,4.5A23.364,23.364,0,0,1,776.8,0H731.2q1-1.2,2.4-2.7a15.947,15.947,0,0,0,2.7-4.5,37.4,37.4,0,0,0,2.2-8.4,91.448,91.448,0,0,0,.9-14.4v-98.2c0-6-.3-20.8-.9-24.4a47.628,47.628,0,0,0-2.1-8.6,14.341,14.341,0,0,0-2.6-4.7q-1.4-1.5-2.6-2.7h37.2ZM878.6-.4q0-7.4-2.4-10.3a7.887,7.887,0,0,0-6.4-2.9,30.044,30.044,0,0,0-10.7,2.5L845.5-5.7q-7.3,2.9-15.3,5.4a52.766,52.766,0,0,1-15.8,2.5,24.442,24.442,0,0,1-6.5-.8,9.325,9.325,0,0,1-5-3.6,20.393,20.393,0,0,1-3.2-8,70.59,70.59,0,0,1-1.1-14V-78.4a89.47,89.47,0,0,0-.9-14.3,39.5,39.5,0,0,0-2.2-8.4,14.39,14.39,0,0,0-2.8-4.6,23.364,23.364,0,0,1-2.5-2.9h45.6q-1,1.2-2.4,2.7a15.945,15.945,0,0,0-2.7,4.5,37.4,37.4,0,0,0-2.2,8.4,91.456,91.456,0,0,0-.9,14.4v49q0,13.4.6,18.5T832.4-6a22.452,22.452,0,0,0,7.8-1.9Q845-9.8,850.6-12t11.2-4.1a31.567,31.567,0,0,1,10-1.9,9.2,9.2,0,0,1,6.8,2.4V-78.4a89.47,89.47,0,0,0-.9-14.3,39.5,39.5,0,0,0-2.2-8.4,14.39,14.39,0,0,0-2.8-4.6,23.364,23.364,0,0,1-2.5-2.9h45.6q-1,1.2-2.4,2.7a15.741,15.741,0,0,0-2.7,4.6,39.545,39.545,0,0,0-2.2,8.5,91.456,91.456,0,0,0-.9,14.4v48a91.456,91.456,0,0,0,.9,14.4,47.632,47.632,0,0,0,2.1,8.6,14.341,14.341,0,0,0,2.6,4.7q1.4,1.5,2.6,2.7H878.6ZM1000,47.8a21.142,21.142,0,0,0,8.1-1.6,17.3,17.3,0,0,0,6.8-5.1,27.689,27.689,0,0,0,4.7-8.7,38.031,38.031,0,0,0,1.8-12.4,40.267,40.267,0,0,0-.7-7.5,19.619,19.619,0,0,0-2.3-6.4,12.925,12.925,0,0,0-4.3-4.4,12.751,12.751,0,0,0-6.9-1.7,22.708,22.708,0,0,0-10.1,2.4,33.894,33.894,0,0,0-8.8,6.2,29.638,29.638,0,0,0-6.2,8.7,22.69,22.69,0,0,0-2.3,9.7,19.808,19.808,0,0,0,1.5,7.5,23.828,23.828,0,0,0,4.1,6.7,19.253,19.253,0,0,0,6.4,4.8A18.911,18.911,0,0,0,1000,47.8Zm15.6-154,1-1.4,17-32h17.8a31.215,31.215,0,0,0-7.5,4.3,55.874,55.874,0,0,0-6.6,6,72.729,72.729,0,0,0-5.6,6.7c-1.667,2.267-9.233,14.4-10.7,16.4l-1,1.6c8.8,3.867,16.767,9.4,21.9,16.6s7.7,15.867,7.7,26a50.607,50.607,0,0,1-4.5,21,51.124,51.124,0,0,1-13,17.5,64.387,64.387,0,0,1-20.9,12A82.333,82.333,0,0,1,983-7a69.884,69.884,0,0,0-13.1,1.2A37.4,37.4,0,0,0,959-2.1a22.151,22.151,0,0,0-7.4,6.3,14.754,14.754,0,0,0-2.8,9,14.346,14.346,0,0,0,2.2,7.6q2.2,3.6,8.2,3.6a15.56,15.56,0,0,0,8.1-2.2,51.992,51.992,0,0,0,7.4-5.4q3.7-3.2,7.7-7a59.879,59.879,0,0,1,9-7,53.061,53.061,0,0,1,11.4-5.4,45.489,45.489,0,0,1,14.8-2.2,52.631,52.631,0,0,1,12.8,1.5,30.816,30.816,0,0,1,10.5,4.7,23.346,23.346,0,0,1,7.1,8,23.158,23.158,0,0,1,2.6,11.2,24.741,24.741,0,0,1-3.8,13.7,32.708,32.708,0,0,1-9.8,9.8,46.622,46.622,0,0,1-13.5,5.9,57.632,57.632,0,0,1-14.9,2,43.37,43.37,0,0,1-15.4-2.5,26.355,26.355,0,0,1-10.6-7,22.854,22.854,0,0,1-5.3-10.7,30.637,30.637,0,0,1,.5-13.6,54.591,54.591,0,0,1-6.6,6.3,58.754,58.754,0,0,1-8,5.5,46.738,46.738,0,0,1-8.4,3.8,25.3,25.3,0,0,1-8,1.4,20.59,20.59,0,0,1-13.9-4.9q-5.7-4.9-5.7-13.3a19.936,19.936,0,0,1,3-10.4q3-5,9.9-8.9t18.4-6.2Q970-10.8,987-10.8a23.216,23.216,0,0,0,13.7-4.3,37.386,37.386,0,0,0,10.4-11.4,58.637,58.637,0,0,0,6.6-16.4,80.1,80.1,0,0,0,2.3-19.3,67.307,67.307,0,0,0-2.3-18.2,45.2,45.2,0,0,0-6.4-14,29.9,29.9,0,0,0-9.8-9,25.492,25.492,0,0,0-12.7-3.2,25.658,25.658,0,0,0-12.6,3.2,29.554,29.554,0,0,0-9.9,9,45.2,45.2,0,0,0-6.4,14,67.3,67.3,0,0,0-2.3,18.2,75.377,75.377,0,0,0,2,17.7,53.354,53.354,0,0,0,5.7,14.6,35.414,35.414,0,0,0,8.9,10.3,25,25,0,0,0,11.4,5l-.6,1.2a78.1,78.1,0,0,1-23.4-4.1,55.8,55.8,0,0,1-18-10,44.027,44.027,0,0,1-11.5-15.1A45.85,45.85,0,0,1,928-62.2a44.289,44.289,0,0,1,4.4-19.9,44.91,44.91,0,0,1,12.4-15.3,58.132,58.132,0,0,1,19.2-9.9,82.875,82.875,0,0,1,24.8-3.5A74.877,74.877,0,0,1,1015.6-106.2Zm105,84.6a15.082,15.082,0,0,0-1.4-6.8,17.419,17.419,0,0,0-4.1-5.2,36.651,36.651,0,0,0-6.7-4.6q-4-2.2-9-4.8-5.4-2.8-11.6-6.2a68.894,68.894,0,0,1-11.5-7.9,38.168,38.168,0,0,1-8.7-10.6,28.478,28.478,0,0,1-3.4-14.1,26.023,26.023,0,0,1,3.2-13.3,25.824,25.824,0,0,1,8.8-9,40.48,40.48,0,0,1,12.9-5.1,72.267,72.267,0,0,1,15.5-1.6,61.117,61.117,0,0,1,17.5,2.2,41.307,41.307,0,0,1,12.3,5.8,35.2,35.2,0,0,1,8.1,7.9,37.408,37.408,0,0,1,4.7,8.5l-8,17a95.739,95.739,0,0,0-2.2-14.4,40.715,40.715,0,0,0-4.7-11.9,23.963,23.963,0,0,0-7.7-8,20.587,20.587,0,0,0-11.2-2.9q-8.6,0-13.9,4.8t-5.3,14.4a22.506,22.506,0,0,0,1.2,7.7,20.541,20.541,0,0,0,3.4,6,29.134,29.134,0,0,0,5.5,5.1,81.617,81.617,0,0,0,7.5,4.8q6,3.6,12.8,7a85.386,85.386,0,0,1,12.5,7.6,42.79,42.79,0,0,1,9.5,9.5,20.886,20.886,0,0,1,3.8,12.5,23.1,23.1,0,0,1-3.2,12,28.445,28.445,0,0,1-9.2,9.3,47.214,47.214,0,0,1-14.5,6,79.783,79.783,0,0,1-19.1,2.1,67.788,67.788,0,0,1-17.7-2,43.639,43.639,0,0,1-12.6-5.5,41.593,41.593,0,0,1-9-7.9,103.391,103.391,0,0,1-6.9-9.2l8-17a58.2,58.2,0,0,0,2.5,14,37.747,37.747,0,0,0,6.1,12,29.841,29.841,0,0,0,9.9,8.3A29.035,29.035,0,0,0,1098.4-2a27.208,27.208,0,0,0,10.2-1.7,20.464,20.464,0,0,0,6.9-4.4,15.911,15.911,0,0,0,3.9-6.3A22.652,22.652,0,0,0,1120.6-21.6Z" transform="translate(354 608)" fill="#93009c"/>
    <line id="Línea_1" data-name="Línea 1" x2="705" transform="translate(362.5 475.5)" fill="none" stroke="#93009c" stroke-width="5"/>
    <line id="Línea_3" data-name="Línea 3" x2="218.5" transform="translate(1140 475.5)" fill="none" stroke="#93009c" stroke-width="5"/>
    <line id="Línea_2" data-name="Línea 2" x2="251" transform="translate(1014.5 632.5)" fill="none" stroke="#93009c" stroke-width="5"/>
    <path id="Trazado_2" data-name="Trazado 2" d="M1.125-17.475h9.816a6.585,6.585,0,0,1,4.423,1.386,4.93,4.93,0,0,1,1.622,3.965,4.809,4.809,0,0,1-.555,2.274A4.148,4.148,0,0,1,14.85-8.186a4.177,4.177,0,0,1,2.08,1.594,4.943,4.943,0,0,1,.665,2.7A5.667,5.667,0,0,1,16.764-.8a5.451,5.451,0,0,1-2.232,2.01,6.934,6.934,0,0,1-3.119.693H1.125ZM9.859-9.794q2.163,0,2.163-2.024a1.881,1.881,0,0,0-.555-1.567,2.745,2.745,0,0,0-1.691-.43H6.033v4.021Zm.305,8.041a3.021,3.021,0,0,0,1.858-.471,1.985,1.985,0,0,0,.61-1.664,2.152,2.152,0,0,0-.638-1.733,2.948,2.948,0,0,0-1.941-.541H6.033v4.409ZM46.239-5.469,39.085-17.475h5.241l4.381,7.514,4.575-7.514h5.213L51.147-5.469V1.907H46.239ZM120.689-7.8,113.7-17.475h5.629l4.187,5.8,4.187-5.8h5.629L126.318-7.8l7.015,9.7H127.7l-4.187-5.8-4.215,5.8h-5.629ZM165.442,2.323q-4.381,0-6.6-2.343a8.644,8.644,0,0,1-2.218-6.2V-17.475h4.908V-6.162a3.89,3.89,0,0,0,1.04,2.939,3.973,3.973,0,0,0,2.87,1,3.923,3.923,0,0,0,2.856-1,3.92,3.92,0,0,0,1.026-2.939V-17.475h4.908V-6.217a8.665,8.665,0,0,1-2.2,6.211Q169.823,2.323,165.442,2.323Zm33.329-19.8h13.753v4.132H203.68v3.632h6.461v3.854H203.68v3.632h8.845V1.907H198.772Z" transform="translate(1052.875 670.5)" fill="#93009c"/>
  </g>
</svg>
